<svg width="48" height="48" viewBox="0 0 48 48" fill="none" xmlns="http://www.w3.org/2000/svg">
<g clip-path="url(#clip0)">
<path d="M33.2142 28.4832C38.976 20.3469 37.049 9.08055 28.9127 3.32005C20.7764 -2.44046 9.51006 -0.514784 3.74955 7.62288C-2.01095 15.7592 -0.08528 27.0241 8.05238 32.7847C13.8597 36.8962 21.5376 37.2127 27.6629 33.5954L40.9719 46.8246C42.4089 48.3373 44.7999 48.3979 46.3126 46.9609C47.8253 45.5252 47.8859 43.1343 46.4502 41.6216C46.4048 41.5734 46.3608 41.5293 46.3126 41.4839L33.2142 28.4832ZM18.4708 29.7165C12.0414 29.7179 6.8287 24.5093 6.82457 18.0799C6.8232 11.6504 12.0317 6.43774 18.4626 6.43499C24.8838 6.43223 30.0937 11.6325 30.1061 18.0537C30.1171 24.4846 24.9113 29.7055 18.4791 29.7165C18.4763 29.7165 18.475 29.7165 18.4708 29.7165Z" fill="#007ACC"/>
</g>
<defs>
<clipPath id="clip0">
<rect width="48" height="48" fill="white"/>
</clipPath>
</defs>
</svg>
